<?xml version="1.0" ?><svg viewBox="0 0 128 128" xmlns="http://www.w3.org/2000/svg"><title/><g data-name="Cake" id="539739f7-e320-4218-be30-633849c0424a"><path d="M107,51.58,78.78,58.09,16,72.58,60.74,41.27l11-7.69a4.91,4.91,0,0,1,5.34-.18Z" fill="#fbc6ba"/><polygon fill="#fbd8cb" points="107 51.58 107 85.42 79 87.94 56.22 89.98 33.81 91.98 16 93.58 16 72.58 78.07 58.26 79 58.05 107 51.58"/><polygon fill="#fbdbd0" points="79 58.05 79 87.94 56.22 89.98 33.81 91.98 16 93.58 16 72.58 78.07 58.26 79 58.05"/><polygon fill="#d64f4f" points="107 63.25 107 78.42 71.19 82.55 16 88.92 16 80.17 69.53 70.22 107 63.25"/><polyline fill="#b84444" points="69.53 70.22 107 63.25 107 78.42"/><path d="M78.78,58.09,16,72.58,60.74,41.27C69.46,44.88,76,50.91,78.78,58.09Z" fill="#fbcfc5"/><ellipse cx="68.5" cy="48.08" fill="#e0b9b0" rx="7" ry="2.33"/><path d="M74.33,40.5a8.75,8.75,0,0,1-8.75,8.75,8.59,8.59,0,0,1-5-1.6,8.68,8.68,0,0,1-3.73-7.15c0-4.83,3.5-7.58,9.33-6.42a4,4,0,0,1,3.14-.58C72,34.06,74.33,37,74.33,40.5Z" fill="#eb5252"/><path d="M72,39.33a8.75,8.75,0,0,1-8.75,8.75,8.56,8.56,0,0,1-2.68-.43,8.68,8.68,0,0,1-3.73-7.15c0-4.83,3.5-7.58,9.33-6.42a4,4,0,0,1,3.14-.58A7.7,7.7,0,0,1,72,39.33Z" fill="#fe5959"/><path d="M70.25,26.5s-5.83,3.5-4.67,9.33" fill="none" stroke="#fe5959" stroke-linecap="round" stroke-linejoin="round" stroke-width="2"/><path d="M76,30s-6,0-5,2,2,3,4,5a20.92,20.92,0,0,0,6,4c2,1-1,3,0,5s4-1,6,2,1,5,4,4a1.57,1.57,0,0,1,1.74.36,3,3,0,0,0,3.47.55c.54-.26,1.15,6,1.8,7.09,4,7,7,6,9,2s0-10,0-11-6-8-10-10-5-4-6-5-3-1-5-2S81,28,76,30Z" fill="#fcf1de"/><line fill="none" stroke="#d64f4f" stroke-linecap="round" stroke-linejoin="round" x1="25" x2="27" y1="74" y2="75"/><line fill="none" stroke="#d64f4f" stroke-linecap="round" stroke-linejoin="round" x1="50.5" x2="52.5" y1="87.5" y2="86.5"/><line fill="none" stroke="#d64f4f" stroke-linecap="round" stroke-linejoin="round" x1="34.5" x2="36.5" y1="72.5" y2="71.5"/><line fill="none" stroke="#d64f4f" stroke-linecap="round" stroke-linejoin="round" x1="57" x2="59" y1="87" y2="88"/><line fill="none" stroke="#d64f4f" stroke-linecap="round" stroke-linejoin="round" x1="91" x2="93" y1="57" y2="58"/><line fill="none" stroke="#d64f4f" stroke-linecap="round" stroke-linejoin="round" x1="73.5" x2="75.5" y1="65.5" y2="64.5"/></g></svg>